<?xml version="1.0" encoding="UTF-8"?>
<svg version="1.1" xmlns="http://www.w3.org/2000/svg" width="1024" height="1024">
<path d="M0 0 C337.92 0 675.84 0 1024 0 C1024 337.92 1024 675.84 1024 1024 C686.08 1024 348.16 1024 0 1024 C0 686.08 0 348.16 0 0 Z " fill="#FEFEFE" transform="translate(0,0)"/>
<path d="M0 0 C1.66550437 0.60736342 3.33192778 1.21222488 5 1.8125 C5.99 2.204375 6.98 2.59625 8 3 C8 3.66 8 4.32 8 5 C9.2065625 5.2784375 9.2065625 5.2784375 10.4375 5.5625 C15.37056917 7.55303668 18.95113925 10.59765089 23 14 C23.81984375 14.66128906 24.6396875 15.32257813 25.484375 16.00390625 C32.45411659 21.88056725 37.09497938 28.39435519 42 36 C42.71542969 37.05832031 43.43085937 38.11664063 44.16796875 39.20703125 C46.23130599 42.35263067 47.66957255 45.50305078 49 49 C49.40476562 50.05832031 49.80953125 51.11664063 50.2265625 52.20703125 C54.55260396 63.88228349 56.37352757 74.1497616 56.37060547 86.60229492 C56.37495755 88.66735755 56.41133464 90.73023795 56.44921875 92.79492188 C56.56329932 105.99433884 53.65945411 117.80462817 47.75 129.6875 C47.36013916 130.48857178 46.97027832 131.28964355 46.56860352 132.11499023 C39.18761355 146.95919711 28.93176743 159.4460949 17.1875 171.0625 C16.30457275 171.94010986 15.42164551 172.81771973 14.51196289 173.72192383 C8.5967634 179.55110385 2.59565679 184.95003485 -4 190 C-5.83803754 191.49423195 -7.67124624 192.99442011 -9.5 194.5 C-12.21658821 196.72791016 -14.93662113 198.94927843 -17.6796875 201.14453125 C-25.09889248 207.11215265 -32.09555152 213.45188177 -39 220 C-39.90105469 220.84691406 -40.80210937 221.69382812 -41.73046875 222.56640625 C-60.01162083 240.22401516 -73.30054274 263.76418796 -74.07824707 289.59934998 C-74.09766054 292.25449347 -74.08782357 294.90742076 -74.0625 297.5625 C-74.05573242 298.93245117 -74.05573242 298.93245117 -74.04882812 300.33007812 C-74.0371874 302.55345738 -74.02083851 304.77669121 -74 307 C-73.42244965 306.98889694 -72.84489929 306.97779388 -72.24984741 306.96635437 C-66.11545658 306.85379295 -59.98136867 306.77953948 -53.84619141 306.7253418 C-51.57133023 306.700542 -49.29654564 306.66669103 -47.02197266 306.62280273 C-8.98653698 305.9084828 23.61368335 317.74926987 51.59765625 343.6015625 C75.94946584 367.91377565 85.98737095 399.16409661 86.3125 432.875 C86.17550888 471.46305835 70.23928443 503.72491161 43.35546875 530.6484375 C22.39790923 550.56911626 -5.42532817 564.31468066 -33.76953125 569.57446289 C-35.2885205 569.8642613 -36.80183783 570.18511125 -38.30859375 570.53295898 C-47.50703377 572.51406591 -56.75846379 572.43891411 -66.125 572.4375 C-67.01061615 572.43889984 -67.8962323 572.44029968 -68.8086853 572.44174194 C-83.78787245 572.42231281 -97.4860926 570.87761989 -112 567 C-113.81694498 566.55028995 -115.63464813 566.10363123 -117.453125 565.66015625 C-168.03129383 553.05211472 -218.2650867 521.50814324 -250 480 C-250.80050781 478.95457031 -251.60101563 477.90914062 -252.42578125 476.83203125 C-265.75284745 459.01576583 -274.96950516 439.42844857 -280.2734375 417.84375 C-280.87348436 415.07645962 -280.87348436 415.07645962 -282 413 C-282.4676523 400.28611475 -280.78513701 387.37908526 -278 375 C-277.73445313 373.81148437 -277.46890625 372.62296875 -277.1953125 371.3984375 C-272.48355283 352.9266717 -262.07718335 336.67595548 -249 323 C-248.19175781 322.09701172 -248.19175781 322.09701172 -247.3671875 321.17578125 C-234.23041898 307.01579709 -211.74027225 293.52844407 -192.29296875 292.62890625 C-182.92547868 292.4431147 -174.14393806 292.84870473 -165 295 C-165.31079637 298.95846899 -165.62395307 302.91674801 -165.9375 306.875 C-166.02451172 307.98359375 -166.11152344 309.0921875 -166.20117188 310.234375 C-166.59471091 315.19005168 -167.00432179 320.13639829 -167.546875 325.078125 C-170.47596918 353.90366947 -165.95046566 383.14407198 -147.98046875 406.640625 C-141.62335533 414.25580114 -134.37156522 419.12296137 -124.40625 420.30859375 C-115.16817469 420.71834709 -107.71701538 418.29047675 -100.796875 411.99609375 C-99.05675703 410.06953457 -97.50297707 408.11480844 -96 406 C-95.4225 405.21625 -94.845 404.4325 -94.25 403.625 C-86.23495932 386.79341458 -87.8153675 368.27612837 -93 351 C-93.45052734 349.36998047 -93.45052734 349.36998047 -93.91015625 347.70703125 C-102.16656757 318.93468876 -117.77198247 292.52723103 -136 269 C-137.15048828 267.46666016 -137.15048828 267.46666016 -138.32421875 265.90234375 C-146.14203415 255.50402919 -154.5825127 245.63583011 -163.52490234 236.18798828 C-179.32160589 219.45007102 -190.96444059 202.30307574 -197 180 C-197.20367187 179.32582031 -197.40734375 178.65164063 -197.6171875 177.95703125 C-200.65272465 162.43862197 -195.7240851 145.6988739 -187.109375 132.83203125 C-180.5917503 124.0815166 -173.36810564 116.73031891 -164 111 C-163.37351562 110.60296875 -162.74703125 110.2059375 -162.1015625 109.796875 C-150.22202753 102.59389905 -136.8618145 101.17889368 -123.44897461 104.43286133 C-120.28691756 105.24838909 -117.14113544 106.1070884 -114 107 C-113.97421875 105.7625 -113.9484375 104.525 -113.921875 103.25 C-112.97476845 70.84881959 -106.49284181 41.42271393 -83 18 C-81.98292969 16.89398438 -81.98292969 16.89398438 -80.9453125 15.765625 C-60.52249107 -6.09781039 -27.15993693 -11.21098134 0 0 Z " fill="#FEDC23" transform="translate(647,250)"/>
<path d="M0 0 C0.86981506 -0.01606293 1.73963013 -0.03212585 2.63580322 -0.04867554 C6.70071448 -0.09376643 10.76546102 -0.13437848 14.83056641 -0.15722656 C16.94624001 -0.17355269 19.06186417 -0.20051941 21.17724609 -0.23925781 C58.56388868 -0.91922996 90.97212101 11.45100267 118.40527344 36.79443359 C142.75708302 61.10664674 152.79498813 92.3569677 153.12011719 126.06787109 C152.98312607 164.65592944 137.04690161 196.9177827 110.16308594 223.84130859 C89.20552642 243.76198735 61.38228902 257.50755175 33.03808594 262.76733398 C31.51909669 263.05713239 30.00577936 263.37798234 28.49902344 263.72583008 C19.30058342 265.706937 10.0491534 265.63178521 0.68261719 265.63037109 C-0.64580704 265.63247086 -0.64580704 265.63247086 -2.00106812 265.63461304 C-16.98025526 265.6151839 -30.67847541 264.07049099 -45.19238281 260.19287109 C-47.00932779 259.74316105 -48.82703095 259.29650233 -50.64550781 258.85302734 C-94.00902877 248.0434412 -140.8524145 222.36819731 -170.19238281 188.19287109 C-170.19238281 187.53287109 -170.19238281 186.87287109 -170.19238281 186.19287109 C-164.68295551 186.14259554 -159.17366816 186.10674793 -153.6640625 186.08300781 C-151.79847888 186.0730879 -149.9329102 186.05954775 -148.06738281 186.04199219 C-138.70811991 185.95626618 -129.49863334 185.99066308 -120.20410156 187.17724609 C-110.8641649 188.36831688 -101.59820737 188.56511391 -92.18920898 188.56347656 C-89.39212147 188.56785195 -86.59661602 188.604358 -83.79980469 188.64208984 C-64.77596335 188.7613606 -47.17816036 185.97599304 -30.19238281 177.19287109 C-29.13792969 176.66951172 -28.08347656 176.14615234 -26.99707031 175.60693359 C-6.37746771 164.57033168 6.89701488 145.40551103 14.12011719 123.63037109 C22.57805996 93.93682093 14.33602524 67.97949348 3.80761719 40.19287109 C2.79084755 37.41170709 1.78396362 34.6272167 0.78027344 31.84130859 C0.20539012 30.27596365 -0.38483869 28.71587518 -1.00878906 27.16943359 C-4.30398567 18.99182527 -6.81067159 10.05501022 -6.19238281 1.19287109 C-3.90025329 0.04680633 -2.55043414 0.04292291 0 0 Z " fill="#012143" transform="translate(580.1923828125,556.80712890625)"/>
<path d="M0 0 C11.81149814 10.04656163 20.81702539 22.92179839 23.1875 38.5625 C25.12330483 63.41992523 16.56152379 83.11857692 0.64501953 101.87597656 C-9.70054 113.84701931 -20.74789165 125.61906337 -32.82421875 135.859375 C-35.37032496 138.04032256 -37.83772723 140.30101134 -40.3125 142.5625 C-44.07600521 145.99514761 -47.87379351 149.3780501 -51.71875 152.71875 C-55.24476915 155.82375194 -58.70153148 159.00494949 -62.171875 162.171875 C-64.28049215 164.08085975 -66.40715957 165.95703302 -68.5625 167.8125 C-110.51998691 204.01676924 -110.51998691 204.01676924 -129.9765625 253.94140625 C-130.75467847 271.34526689 -128.68486562 289.84389178 -116.8125 303.5625 C-116.97113525 303.03897949 -117.12977051 302.51545898 -117.29321289 301.97607422 C-122.83410304 276.2227879 -115.6759407 248.30593107 -101.8125 226.5625 C-99.05396207 222.62441689 -96.11040914 219.05738324 -92.8125 215.5625 C-91.97460938 214.66917969 -91.13671875 213.77585937 -90.2734375 212.85546875 C-85.76903091 208.20817312 -81.30980058 203.99831286 -75.8125 200.5625 C-75.1525 200.5625 -74.4925 200.5625 -73.8125 200.5625 C-73.956875 201.28953125 -74.10125 202.0165625 -74.25 202.765625 C-77.34427938 219.52630499 -75.67650216 234.20376696 -65.8125 248.5625 C-62.32723051 252.75763295 -58.63219515 256.67196885 -54.8125 260.5625 C-54.08417969 261.31789063 -53.35585938 262.07328125 -52.60546875 262.8515625 C-49.51123849 266.01292596 -46.36008445 268.94908259 -42.9375 271.75 C-30.41908406 282.59272247 -22.49077152 297.32029326 -19.8125 313.5625 C-19.49522273 318.34481089 -19.5228658 323.08516774 -19.625 327.875 C-19.63853516 329.10412109 -19.65207031 330.33324219 -19.66601562 331.59960938 C-19.70089635 334.58772513 -19.74990302 337.57485873 -19.8125 340.5625 C-23.8028254 341.7227539 -26.68369522 341.17690547 -30.8125 340.5625 C-44.30780078 339.65252507 -56.37920793 339.81058698 -68.8125 345.5625 C-69.82836182 346.02922119 -69.82836182 346.02922119 -70.86474609 346.50537109 C-98.59693644 359.50424403 -119.62687589 382.22478457 -130.08984375 411.0859375 C-131.14312006 414.55976202 -132.02100247 418.01997222 -132.8125 421.5625 C-132.95526367 422.19704102 -133.09802734 422.83158203 -133.24511719 423.48535156 C-135.85375693 435.43819746 -136.46654655 447.35869383 -136.8125 459.5625 C-156.90184074 450.26751225 -171.24010912 421.57918332 -178.609375 401.87890625 C-179.20492188 400.23728516 -179.20492188 400.23728516 -179.8125 398.5625 C-180.10640625 397.76714844 -180.4003125 396.97179687 -180.703125 396.15234375 C-181.46975335 393.97071519 -182.15036917 391.77809163 -182.8125 389.5625 C-183.28816406 388.06009766 -183.28816406 388.06009766 -183.7734375 386.52734375 C-197.2729707 340.69998106 -188.25835171 289.52815821 -166.8125 247.5625 C-166.4923291 246.92248047 -166.1721582 246.28246094 -165.84228516 245.62304688 C-157.02699762 228.05212093 -146.61507733 211.28062431 -134.8125 195.5625 C-134.31250488 194.8926709 -133.81250977 194.2228418 -133.29736328 193.53271484 C-126.89582897 184.97852108 -120.31307669 176.63198247 -113.3515625 168.52734375 C-110.26015492 164.9175309 -107.24813868 161.2491593 -104.25390625 157.55859375 C-102.42094739 155.30918664 -100.57436412 153.07489437 -98.71484375 150.84765625 C-91.45840446 142.110158 -84.85092321 133.18216432 -78.8125 123.5625 C-78.1421875 122.51191406 -77.471875 121.46132813 -76.78125 120.37890625 C-72.68006164 113.69709725 -69.96171404 107.08984207 -67.8125 99.5625 C-67.45671875 98.55058594 -67.1009375 97.53867187 -66.734375 96.49609375 C-63.34578871 84.49601073 -63.83643726 67.45816001 -69.26171875 56.1796875 C-77.26329618 42.67576589 -87.24297953 31.72596813 -102.7421875 27.0703125 C-115.96785563 23.8262807 -131.97710642 23.94098159 -144.8125 28.5625 C-145.81925781 28.91054687 -146.82601562 29.25859375 -147.86328125 29.6171875 C-150.52787667 30.5641384 -153.16995103 31.55624636 -155.8125 32.5625 C-156.8025 32.8925 -157.7925 33.2225 -158.8125 33.5625 C-157.27464612 28.52602855 -154.23395831 25.17957763 -150.8125 21.3125 C-150.22581543 20.64645752 -149.63913086 19.98041504 -149.03466797 19.29418945 C-112.07757206 -22.12775855 -45.56712759 -35.98381039 0 0 Z " fill="#022043" transform="translate(502.8125,203.4375)"/>
<path d="M0 0 C1.49176758 -0.01836914 1.49176758 -0.01836914 3.01367188 -0.03710938 C19.63043699 -0.06984102 31.35061099 6.29305849 43.375 17.5 C53.4082877 27.92811615 57.42945023 40.79301781 57.1875 55 C57.17468994 56.1456543 57.16187988 57.29130859 57.14868164 58.47167969 C56.47187332 86.75704565 38.07815363 108.6829581 20.828125 129.58203125 C18.79605785 132.05536845 16.80028845 134.55352311 14.8125 137.0625 C11.72201302 140.94400448 8.53562218 144.72923823 5.3125 148.5 C-3.12590089 158.4108931 -10.88458419 168.7231324 -18.17382812 179.51171875 C-19.31686752 181.19392768 -20.47744137 182.86292339 -21.640625 184.53125 C-33.91079957 202.31114487 -45.21005824 221.71575611 -52.3125 242.1875 C-54.87041152 239.62958848 -55.78893389 237.06865627 -57.25 233.75 C-64.16968332 218.47755174 -73.39936188 204.33635184 -82.21875 190.11328125 C-86.13441902 183.63417636 -89.00900403 177.38592491 -91.3125 170.1875 C-91.80118866 168.7483938 -92.29085106 167.30961805 -92.78125 165.87109375 C-100.9367651 141.55785705 -103.02800205 117.39975165 -97.3125 92.1875 C-97.16264648 91.51895996 -97.01279297 90.85041992 -96.85839844 90.16162109 C-89.26691435 57.25713114 -68.33099005 28.40737588 -39.89453125 10.31640625 C-35.56032521 7.66791513 -31.1419635 5.74753288 -26.3125 4.1875 C-25.52101563 3.90390625 -24.72953125 3.6203125 -23.9140625 3.328125 C-15.89280719 0.50336399 -8.4612609 0.00542041 0 0 Z " fill="#FECD03" transform="translate(381.3125,227.8125)"/>
<path d="M0 0 C-0.31079637 3.95846899 -0.62395307 7.91674801 -0.9375 11.875 C-1.02451172 12.98359375 -1.11152344 14.0921875 -1.20117188 15.234375 C-1.59471091 20.19005168 -2.00432179 25.13639829 -2.546875 30.078125 C-5.17335434 55.92560289 -2.30664371 82.52555452 12.5625 104.5 C15.38445427 108.9169719 15.4397539 112.16430632 14.61328125 117.28125 C12.93945559 124.7015217 10.53939622 131.37992914 7.28125 138.26171875 C6.33501825 140.28400064 5.43863868 142.32978214 4.5703125 144.38671875 C-0.26717004 155.51774202 -6.32545544 166.55808107 -14 176 C-14.66 176 -15.32 176 -16 176 C-16.20625 176.53109375 -16.4125 177.0621875 -16.625 177.609375 C-18.57961192 181.00773436 -21.22123717 183.51055928 -24 186.25 C-24.5465625 186.80429687 -25.093125 187.35859375 -25.65625 187.9296875 C-29.7466133 192 -29.7466133 192 -32 192 C-32 192.99 -32 193.98 -32 195 C-33.98 195.33 -35.96 195.66 -38 196 C-38 196.66 -38 197.32 -38 198 C-42.81741623 198.39305519 -47.63284495 198.71570282 -52.45922852 198.9765625 C-54.09653029 199.07462963 -55.73284213 199.19116531 -57.36743164 199.32714844 C-70.85458541 200.43015644 -70.85458541 200.43015644 -75.91088867 197.05957031 C-78.24706424 194.50098393 -80.1256954 191.91030173 -82 189 C-83.11571003 187.56666299 -84.2388922 186.13909626 -85.37109375 184.71875 C-99.39631881 165.69120955 -109.61993898 145.85103092 -115.2734375 122.84375 C-115.87348436 120.07645962 -115.87348436 120.07645962 -117 118 C-117.4676523 105.28611475 -115.78513701 92.37908526 -113 80 C-112.73445313 78.81148437 -112.46890625 77.62296875 -112.1953125 76.3984375 C-107.48355283 57.9266717 -97.07718335 41.67595548 -84 28 C-83.46117187 27.39800781 -82.92234375 26.79601562 -82.3671875 26.17578125 C-61.24629281 3.40979175 -30.16080515 -7.09593579 0 0 Z " fill="#FECD03" transform="translate(482,545)"/>
<path d="M0 0 C0 0.66 0 1.32 0 2 C0.89074219 1.93039062 1.78148437 1.86078125 2.69921875 1.7890625 C10.04498203 2.25849589 15.7592363 9.54914287 20.625 14.625 C34.16794189 30.22570337 40.18448369 49.68811226 42.35424805 69.88378906 C42.46066951 73.23136934 42.46066951 73.23136934 44 76 C44.11368305 78.44179727 44.16419135 80.85411189 44.16796875 83.296875 C44.17296135 84.4137973 44.17296135 84.4137973 44.17805481 85.55328369 C44.18313394 87.14049664 44.18546283 88.72772034 44.18530273 90.31494141 C44.18745347 92.69843383 44.20549644 95.08143561 44.22460938 97.46484375 C44.2584551 106.51558211 43.65255602 115.07514538 42 124 C41.72123931 125.79585911 41.44873187 127.59270419 41.18359375 129.390625 C40.93508392 131.01044553 40.68639028 132.63023788 40.4375 134.25 C40.31181641 135.08917969 40.18613281 135.92835938 40.05664062 136.79296875 C39.11347226 142.88652774 39.11347226 142.88652774 38 144 C37.66906584 145.73646421 37.38661382 147.48221717 37.125 149.23046875 C36.42849877 153.61778157 35.58990152 157.91687448 34.5625 162.23828125 C28.54302698 188.8322292 28.5156468 215.83935606 28 243 C25 242 25 242 24.14379883 240.39624023 C23.91716553 239.70731689 23.69053223 239.01839355 23.45703125 238.30859375 C23.19237061 237.53708984 22.92770996 236.76558594 22.6550293 235.97070312 C22.37699463 235.13474609 22.09895996 234.29878906 21.8125 233.4375 C18.83511692 224.95112388 15.30797197 217.04392878 11.10644531 209.10253906 C9.91356643 206.83575333 8.74880225 204.55575585 7.5859375 202.2734375 C0.20660592 187.88431608 -8.11479701 174.82223274 -18 162 C-18.76957031 160.97390625 -19.53914063 159.9478125 -20.33203125 158.890625 C-28.1488644 148.49740956 -36.58569129 138.63247186 -45.52490234 129.18798828 C-61.32160589 112.45007102 -72.96444059 95.30307574 -79 73 C-79.20367187 72.32582031 -79.40734375 71.65164063 -79.6171875 70.95703125 C-82.65272465 55.43862197 -77.7240851 38.6988739 -69.109375 25.83203125 C-62.5917503 17.0815166 -55.36810564 9.73031891 -46 4 C-45.37351562 3.60296875 -44.74703125 3.2059375 -44.1015625 2.796875 C-30.90252645 -5.20616043 -14.03576843 -7.01788422 0 0 Z " fill="#FECC02" transform="translate(529,357)"/>
<path d="M0 0 C11.81149814 10.04656163 20.81702539 22.92179839 23.1875 38.5625 C25.12330483 63.41992523 16.56152379 83.11857692 0.64501953 101.87597656 C-9.70054 113.84701931 -20.74789165 125.61906337 -32.82421875 135.859375 C-35.37032496 138.04032256 -37.83772723 140.30101134 -40.3125 142.5625 C-44.07600521 145.99514761 -47.87379351 149.3780501 -51.71875 152.71875 C-55.24476915 155.82375194 -58.70153148 159.00494949 -62.171875 162.171875 C-64.28049215 164.08085975 -66.40715957 165.95703302 -68.5625 167.8125 C-83.32627536 180.68194166 -98.23094807 194.19072814 -110.2734375 209.68359375 C-110.78132813 210.30363281 -111.28921875 210.92367187 -111.8125 211.5625 C-112.1425 211.5625 -112.4725 211.5625 -112.8125 211.5625 C-114.27181837 191.13204285 -102.76473741 172.19534444 -92.94018555 155.11083984 C-88.66921953 147.65700322 -84.60631643 140.05769863 -82.5 131.6875 C-81.23178496 126.98135263 -78.94535146 123.27356809 -76.375 119.1875 C-72.41345177 112.88236652 -69.76905589 106.78046783 -67.8125 99.5625 C-67.45929688 98.55445313 -67.10609375 97.54640625 -66.7421875 96.5078125 C-63.34094131 84.50956142 -63.83596852 67.45913445 -69.26171875 56.1796875 C-77.26329618 42.67576589 -87.24297953 31.72596813 -102.7421875 27.0703125 C-115.96785563 23.8262807 -131.97710642 23.94098159 -144.8125 28.5625 C-145.81925781 28.91054687 -146.82601563 29.25859375 -147.86328125 29.6171875 C-150.52787667 30.5641384 -153.16995103 31.55624636 -155.8125 32.5625 C-157.2975 33.0575 -157.2975 33.0575 -158.8125 33.5625 C-157.27464612 28.52602855 -154.23395831 25.17957763 -150.8125 21.3125 C-150.22581543 20.64645752 -149.63913086 19.98041504 -149.03466797 19.29418945 C-112.07757206 -22.12775855 -45.56712759 -35.98381039 0 0 Z " fill="#038BE3" transform="translate(502.8125,203.4375)"/>
<path d="M0 0 C1.36682119 -0.03637132 2.7332999 -0.09065219 4.09863281 -0.1640625 C11.77485871 -0.56989537 17.37556249 -0.40024162 23.51098633 4.53466797 C25.25125429 6.17991804 26.96056959 7.85857931 28.63598633 9.56982422 C29.45010986 10.3274707 30.2642334 11.08511719 31.10302734 11.86572266 C41.14187628 21.21864963 50.42278813 30.87095602 57.63598633 42.56982422 C58.0890918 43.29137695 58.54219727 44.01292969 59.0090332 44.75634766 C71.40991236 64.67265894 77.83255018 83.34641295 77.94848633 107.00732422 C77.9569458 108.66030518 77.9569458 108.66030518 77.96557617 110.34667969 C77.90881402 116.68961015 77.34211478 122.46035159 75.63598633 128.56982422 C75.31500977 129.76865234 74.9940332 130.96748047 74.66333008 132.20263672 C69.86818569 147.56772303 61.34736565 161.44401386 49.63598633 172.56982422 C49.18352539 173.07771484 48.73106445 173.58560547 48.26489258 174.10888672 C32.7001397 191.10978887 5.82659344 200.39130885 -16.59390259 201.69998169 C-22.62027535 201.93610132 -28.64624626 201.95805435 -34.67651367 201.94482422 C-35.60842529 201.9442804 -36.54033691 201.94373657 -37.50048828 201.94317627 C-52.16931047 201.9038522 -66.03713844 200.86823642 -80.36401367 197.56982422 C-82.74648362 197.05781099 -85.12931611 196.54748274 -87.51245117 196.03857422 C-92.12251156 195.02981502 -96.73028269 194.01388714 -101.32495117 192.93701172 C-102.25098145 192.72157715 -103.17701172 192.50614258 -104.13110352 192.28417969 C-106.36401367 191.56982422 -106.36401367 191.56982422 -108.36401367 189.56982422 C-107.47431885 189.56047852 -106.58462402 189.55113281 -105.66796875 189.54150391 C-82.00055302 189.23003027 -59.82626794 188.66767334 -38.36401367 177.56982422 C-37.30956055 177.04646484 -36.25510742 176.52310547 -35.16870117 175.98388672 C-14.54909857 164.9472848 -1.27461598 145.78246415 5.94848633 124.00732422 C14.4064291 94.31377406 6.16439438 68.35644661 -4.36401367 40.56982422 C-5.38078331 37.78866022 -6.38766724 35.00416983 -7.39135742 32.21826172 C-7.96624074 30.65291677 -8.55646955 29.0928283 -9.18041992 27.54638672 C-12.47561653 19.36877839 -14.98230245 10.43196335 -14.36401367 1.56982422 C-10.1090705 -0.55764737 -4.68035888 0.09645653 0 0 Z " fill="#028AE3" transform="translate(588.364013671875,556.43017578125)"/>
<path d="M0 0 C-0.07516846 0.89247437 -0.07516846 0.89247437 -0.15185547 1.80297852 C-0.39591619 4.72257569 -0.63553153 7.6425226 -0.875 10.5625 C-0.96668457 11.65973389 -1.05836914 12.75696777 -1.15283203 13.88745117 C-1.68174384 20.39633237 -2.11583265 26.90016036 -2.4375 33.421875 C-2.54812791 35.52818608 -2.65981129 37.63443949 -2.77154541 39.74069214 C-2.84031616 41.11791255 -2.902328 42.49548768 -2.9574585 43.87332153 C-3.03567002 45.8186346 -3.13845802 47.76291187 -3.2421875 49.70703125 C-3.31735596 51.38502808 -3.31735596 51.38502808 -3.39404297 53.09692383 C-4.12249995 56.58688431 -5.32011647 57.73267749 -8 60 C-9.34920762 61.83372969 -10.59823445 63.70942547 -11.8515625 65.609375 C-12.42003906 66.29773438 -12.42003906 66.29773438 -13 67 C-13.66 67 -14.32 67 -15 67 C-15.25265625 67.55945313 -15.5053125 68.11890625 -15.765625 68.6953125 C-26.13117623 88.04871511 -47.11544091 102.99842167 -66 113 C-66.91394531 113.4846875 -67.82789063 113.969375 -68.76953125 114.46875 C-80.19841306 120.08894975 -91.66201228 122.34704864 -104.3125 122.5 C-105.22628418 122.51844971 -106.14006836 122.53689941 -107.08154297 122.5559082 C-113.26312488 122.49715234 -113.26312488 122.49715234 -116.11328125 120.57421875 C-117.52633756 116.471998 -117.16727398 112.60007889 -116.875 108.3125 C-116.81932861 107.37784912 -116.76365723 106.44319824 -116.70629883 105.48022461 C-116.12102921 96.84511107 -114.89886265 88.43986582 -113 80 C-112.73445313 78.81148437 -112.46890625 77.62296875 -112.1953125 76.3984375 C-107.48355283 57.9266717 -97.07718335 41.67595548 -84 28 C-83.46117187 27.39800781 -82.92234375 26.79601562 -82.3671875 26.17578125 C-61.24629281 3.40979175 -30.16080515 -7.09593579 0 0 Z " fill="#FDB401" transform="translate(482,545)"/>
<path d="M0 0 C-0.144375 0.72703125 -0.28875 1.4540625 -0.4375 2.203125 C-3.53177938 18.96380499 -1.86400216 33.64126696 8 48 C11.48526949 52.19513295 15.18030485 56.10946885 19 60 C19.72832031 60.75539063 20.45664062 61.51078125 21.20703125 62.2890625 C24.30126151 65.45042596 27.45241555 68.38658259 30.875 71.1875 C43.39341594 82.03022247 51.32172848 96.75779326 54 113 C54.31727727 117.78231089 54.2896342 122.52266774 54.1875 127.3125 C54.16719727 129.15618164 54.16719727 129.15618164 54.14648438 131.03710938 C54.11160365 134.02522513 54.06259698 137.01235873 54 140 C50.01449499 141.16057561 47.1206667 140.61995989 43 140 C40.49226134 139.85837912 37.98664635 139.78458704 35.47607422 139.7097168 C9.05925178 138.90717456 -15.95390206 133.6774603 -35 114 C-35.68964844 113.30777344 -36.37929688 112.61554688 -37.08984375 111.90234375 C-44.75570363 103.76618572 -44.48176305 94.65263339 -44.5 83.9375 C-44.50134949 83.22647125 -44.50269897 82.5154425 -44.50408936 81.78286743 C-44.42909327 56.81512931 -36.34803981 33.38418553 -19 15 C-18.16210938 14.10667969 -17.32421875 13.21335937 -16.4609375 12.29296875 C-4.54593704 0 -4.54593704 0 0 0 Z " fill="#028BE3" transform="translate(429,404)"/>
<path d="M0 0 C0.515625 0.2475 1.03125 0.495 1.5625 0.75 C1.2325 1.08 0.9025 1.41 0.5625 1.75 C0.90457725 5.17077249 1.44041928 8.35026666 2.4453125 11.640625 C4.13634245 17.44703428 5.06474866 23.42878327 6.125 29.375 C6.34607422 30.56996094 6.56714844 31.76492188 6.79492188 32.99609375 C8.05779944 40.03921152 8.9257305 46.97316101 9.33178711 54.11865234 C9.46931783 56.85738329 9.46931783 56.85738329 10.5625 59.75 C10.65798011 61.9163176 10.69323533 64.08548653 10.6953125 66.25390625 C10.69724609 68.20200195 10.69724609 68.20200195 10.69921875 70.18945312 C10.69712402 70.86758057 10.6950293 71.54570801 10.69287109 72.24438477 C10.68758222 74.28083981 10.69278916 76.317068 10.69921875 78.35351562 C10.69211575 85.55950855 10.44004268 92.59968144 9.5625 99.75 C9.41608905 101.17936517 9.27281321 102.60905525 9.1328125 104.0390625 C7.81361379 116.96869206 6.21420988 129.85904986 4.5625 142.75 C3.81742187 142.00363281 3.07234375 141.25726563 2.3046875 140.48828125 C0.73193964 138.91777377 -0.8441315 137.35054435 -2.4296875 135.79296875 C-6.99891357 131.29010074 -11.32084112 126.66952543 -15.4375 121.75 C-15.8814209 121.22519043 -16.3253418 120.70038086 -16.78271484 120.15966797 C-27.24668859 107.72657403 -35.22564441 95.30659927 -40.4375 79.75 C-40.7571875 78.83734375 -41.076875 77.9246875 -41.40625 76.984375 C-45.96415773 62.55100052 -43.51062814 47.3476957 -37.4375 33.75 C-30.92837517 21.37199212 -21.33508087 11.05909405 -9.4375 3.75 C-8.42816406 3.08484375 -8.42816406 3.08484375 -7.3984375 2.40625 C-3.07665375 -0.31555423 -3.07665375 -0.31555423 0 0 Z " fill="#FDB71C" transform="translate(492.4375,357.25)"/>
<path d="M0 0 C1.10892145 25.9159049 -6.47825151 50.52119757 -24 70 C-24.62519531 70.70769531 -25.25039063 71.41539062 -25.89453125 72.14453125 C-35.4276895 82.31992332 -47.30752413 88.6848442 -60 94 C-61.16402344 94.49113281 -61.16402344 94.49113281 -62.3515625 94.9921875 C-76.75080779 100.38495504 -92.353732 100.49631102 -107.5 100.375 C-108.45902222 100.37234131 -109.41804443 100.36968262 -110.40612793 100.36694336 C-125.4556009 100.3180183 -140.13213482 99.48784995 -155 97 C-155 96.34 -155 95.68 -155 95 C-153.98421875 94.68546875 -152.9684375 94.3709375 -151.921875 94.046875 C-148.30063391 92.92363603 -144.6843238 91.78510998 -141.06835938 90.64501953 C-139.32607747 90.10168752 -137.57772665 89.57787207 -135.828125 89.05859375 C-127.86564232 86.6060611 -120.61452821 83.01588483 -113.25732422 79.17138672 C-110.92231932 77.95968939 -108.57398278 76.77733524 -106.22265625 75.59765625 C-86.42410004 65.56951636 -67.29657574 54.1723985 -49.84326172 40.43115234 C-47.91975986 38.93769964 -45.9682469 37.49003398 -44.00390625 36.05078125 C-31.03975753 26.5440502 -19.06222658 16.094909 -7.39013672 5.04907227 C-2.03460649 0 -2.03460649 0 0 0 Z " fill="#FBFCFB" transform="translate(599,646)"/>
<path d="M0 0 C0.66 0.33 1.32 0.66 2 1 C-12.98919649 17.5070898 -12.98919649 17.5070898 -16 20 C-16.66 20 -17.32 20 -18 20 C-18.33 21.32 -18.66 22.64 -19 24 C-17.35 24 -15.7 24 -14 24 C-17.58752742 25.86551426 -21.27812193 27.42535928 -25 29 C-23.46178735 23.96235358 -20.42030531 20.61917454 -17 16.75 C-16.42419189 16.0912085 -15.84838379 15.43241699 -15.25512695 14.75366211 C-10.51348426 9.40793008 -5.49504736 4.57713877 0 0 Z " fill="#1F95DE" transform="translate(369,208)"/>
<path d="M0 0 C7.59 0 15.18 0 23 0 C23 0.66 23 1.32 23 2 C19.96673215 3.51663393 17.121154 3.17097474 13.75 3.1875 C12.44546875 3.20167969 11.1409375 3.21585938 9.796875 3.23046875 C6.15198592 3.00922548 3.38106107 2.32827399 0 1 C0 0.67 0 0.34 0 0 Z " fill="#289FE4" transform="translate(480,746)"/>
<path d="M0 0 C0.33 0 0.66 0 1 0 C1 10.56 1 21.12 1 32 C-2 29 -2 29 -2.26464844 26.85864258 C-2.2134082 26.04548584 -2.16216797 25.2323291 -2.109375 24.39453125 C-2.05910156 23.49283203 -2.00882812 22.59113281 -1.95703125 21.66210938 C-1.85455078 20.25155273 -1.85455078 20.25155273 -1.75 18.8125 C-1.69714844 17.89146484 -1.64429688 16.97042969 -1.58984375 16.02148438 C-1.26181303 10.64712052 -0.7271347 5.33441061 0 0 Z " fill="#CB9B28" transform="translate(367,634)"/>
<path d="M0 0 C2.26104255 2.26104255 2.59615826 3.52511373 3.4375 6.5625 C4.8247767 11.42504639 6.3699905 16.21401467 8 21 C6.109375 20.78515625 6.109375 20.78515625 4 20 C2.953125 17.93359375 2.953125 17.93359375 2.25 15.4375 C2.00765625 14.61121094 1.7653125 13.78492188 1.515625 12.93359375 C1.34546875 12.29550781 1.1753125 11.65742187 1 11 C1.66 10.34 2.32 9.68 3 9 C2.01 8.67 1.02 8.34 0 8 C0 5.36 0 2.72 0 0 Z " fill="#E6DA2A" transform="translate(582,592)"/>
<path d="M0 0 C-1.31307249 2.91346593 -2.71181588 4.9450979 -5.00390625 7.1640625 C-5.57947266 7.72867187 -6.15503906 8.29328125 -6.74804688 8.875 C-7.34681641 9.4525 -7.94558594 10.03 -8.5625 10.625 C-9.75349384 11.78160151 -10.94240005 12.94035778 -12.12890625 14.1015625 C-12.65556885 14.61025879 -13.18223145 15.11895508 -13.72485352 15.64306641 C-15.1164217 16.99400105 -15.1164217 16.99400105 -16 19 C-16.66 19 -17.32 19 -18 19 C-15.53490226 13.57678498 -6.33467914 0 0 0 Z " fill="#1690DF" transform="translate(422,409)"/>
<path d="M0 0 C0 3 0 3 -1.28515625 4.62573242 C-2.16494141 5.4819519 -2.16494141 5.4819519 -3.0625 6.35546875 C-3.69414062 6.97744141 -4.32578125 7.59941406 -4.9765625 8.24023438 C-5.64429688 8.88283203 -6.31203125 9.52542969 -7 10.1875 C-8.00160156 11.16879883 -8.00160156 11.16879883 -9.0234375 12.16992188 C-10.67578441 13.78686135 -12.33471601 15.39640491 -14 17 C-14.99 16.67 -15.98 16.34 -17 16 C-14.73328976 13.70422364 -12.46093591 11.41411478 -10.1875 9.125 C-9.22360352 8.14853516 -9.22360352 8.14853516 -8.24023438 7.15234375 C-7.61826172 6.52714844 -6.99628906 5.90195312 -6.35546875 5.2578125 C-5.78465576 4.6817627 -5.21384277 4.10571289 -4.62573242 3.51220703 C-3 2 -3 2 0 0 Z " fill="#E4A511" transform="translate(408,564)"/>
<path d="M0 0 C0 0.66 0 1.32 0 2 C-0.99 2.33 -1.98 2.66 -3 3 C-3.33 3.99 -3.66 4.98 -4 6 C-7.96 6 -11.92 6 -16 6 C-16 5.34 -16 4.68 -16 4 C-13.70922959 3.33011414 -11.41748541 2.66396838 -9.125 2 C-8.47402344 1.80921875 -7.82304687 1.6184375 -7.15234375 1.421875 C-2.2265625 0 -2.2265625 0 0 0 Z " fill="#FBF6D9" transform="translate(460,737)"/>
<path d="M0 0 C0.33 0 0.66 0 1 0 C1.02505615 0.69561035 1.0501123 1.3912207 1.07592773 2.10791016 C1.19245974 5.28043455 1.31492568 8.45270355 1.4375 11.625 C1.47681641 12.71941406 1.51613281 13.81382812 1.55664062 14.94140625 C1.59853516 16.00488281 1.64042969 17.06835938 1.68359375 18.1640625 C1.72025146 19.13811035 1.75690918 20.1121582 1.79467773 21.11572266 C2.00893288 24.1254852 2.45931357 27.03295916 3 30 C0.33264727 27.51047079 -1.55746343 25.36591866 -3 22 C-2.34 22 -1.68 22 -1 22 C-0.67 14.74 -0.34 7.48 0 0 Z " fill="#BEE1F5" transform="translate(384,479)"/>
<path d="M0 0 C0.33 0.66 0.66 1.32 1 2 C0.0625 4.125 0.0625 4.125 -1 6 C-1.66 6 -2.32 6 -3 6 C-3.144375 6.598125 -3.28875 7.19625 -3.4375 7.8125 C-3.8872439 9.56150404 -4.42892341 11.28677023 -5 13 C-5.639375 13.12375 -6.27875 13.2475 -6.9375 13.375 C-7.618125 13.58125 -8.29875 13.7875 -9 14 C-9.70211894 15.65204456 -10.36971413 17.31923769 -11 19 C-11.99 19.33 -12.98 19.66 -14 20 C-12.2850816 16.0342512 -9.65226582 12.80587759 -7 9.4375 C-4.57888121 6.34192668 -2.1818227 3.27273406 0 0 Z " fill="#283535" transform="translate(421,332)"/>
<path d="M0 0 C0.33 0.99 0.66 1.98 1 3 C-0.375 4.5 -0.375 4.5 -2 6 C-2.66 6 -3.32 6 -4 6 C-4.061875 6.53625 -4.12375 7.0725 -4.1875 7.625 C-5.40035264 11.17026157 -7.44610926 13.2592392 -10 16 C-10.66 16 -11.32 16 -12 16 C-10.45333439 12.53611348 -8.38609908 9.81376173 -6 6.875 C-5.29875 6.00617188 -4.5975 5.13734375 -3.875 4.2421875 C-2 2 -2 2 0 0 Z " fill="#F6BD38" transform="translate(471,370)"/>
<path d="M0 0 C0.33 0.66 0.66 1.32 1 2 C-0.60197696 6.24523895 -2.39508372 10.26251142 -5 14 C-5.66 14 -6.32 14 -7 14 C-5.53967505 8.68972746 -3.01679014 4.53669968 0 0 Z " fill="#223233" transform="translate(350,426)"/>
<path d="M0 0 C0 4.29 0 8.58 0 13 C-1.90318884 10.14521674 -2.4619099 8.58058692 -3.125 5.3125 C-3.29257812 4.50425781 -3.46015625 3.69601562 -3.6328125 2.86328125 C-3.75398437 2.24839844 -3.87515625 1.63351562 -4 1 C-1 0 -1 0 0 0 Z " fill="#FCD730" transform="translate(558,598)"/>
<path d="M0 0 C0.66 0 1.32 0 2 0 C2 0.66 2 1.32 2 2 C3.65 2 5.3 2 7 2 C3.41247258 3.86551426 -0.27812193 5.42535928 -4 7 C-2.92598892 4.08482708 -2.22189824 2.22189824 0 0 Z " fill="#2B95BD" transform="translate(348,230)"/>
<path d="M0 0 C0.66 0 1.32 0 2 0 C-0.89066059 9.59453303 -0.89066059 9.59453303 -4 13 C-3.40895235 8.15340923 -2.02055843 4.39251833 0 0 Z " fill="#00275C" transform="translate(418,338)"/>
<path d="M0 0 C-0.66 3.96 -1.32 7.92 -2 12 C-2.33 12 -2.66 12 -3 12 C-3.1953125 9.94921875 -3.390625 7.8984375 -3.5859375 5.84765625 C-3.72257812 5.23792969 -3.85921875 4.62820313 -4 4 C-4.66 3.67 -5.32 3.34 -6 3 C-2.25 0 -2.25 0 0 0 Z " fill="#33A1DD" transform="translate(429,404)"/>
<path d="M0 0 C2.97 0 5.94 0 9 0 C9.33 0.99 9.66 1.98 10 3 C2.25 2.25 2.25 2.25 0 0 Z " fill="#2589CA" transform="translate(480,746)"/>
<path d="M0 0 C0.99 0 1.98 0 3 0 C3 2.31 3 4.62 3 7 C2.01 7 1.02 7 0 7 C0 4.69 0 2.38 0 0 Z " fill="#F0DB2F" transform="translate(595,640)"/>
<path d="M0 0 C-3.0469629 1.69433918 -5.82821466 2.49467112 -9.25 3.125 C-10.58804688 3.37636719 -10.58804688 3.37636719 -11.953125 3.6328125 C-12.62859375 3.75398437 -13.3040625 3.87515625 -14 4 C-9.86300566 -0.13699434 -5.66047258 -0.22197932 0 0 Z " fill="#0C7ECD" transform="translate(598,752)"/>
<path d="M0 0 C0 3.34419152 -0.47519394 4.06840321 -2.375 6.6875 C-2.81585938 7.31011719 -3.25671875 7.93273437 -3.7109375 8.57421875 C-4.13632812 9.04472656 -4.56171875 9.51523437 -5 10 C-5.66 10 -6.32 10 -7 10 C-5.33248852 6.05860922 -2.77289351 3.2107188 0 0 Z " fill="#2496D8" transform="translate(411,418)"/>
<path d="M0 0 C0.66 0.33 1.32 0.66 2 1 C-1.01887244 4.48331435 -3.56909529 5.79157144 -8 7 C-5.42215154 4.35247996 -3.08351902 2.05567935 0 0 Z " fill="#F9D73B" transform="translate(340,239)"/>
<path d="M0 0 C2.6855594 2.6855594 3.06049974 5.37621328 4 9 C2.68 8.67 1.36 8.34 0 8 C0 5.36 0 2.72 0 0 Z " fill="#B8CB4A" transform="translate(582,592)"/>
<path d="M0 0 C0.99 0 1.98 0 3 0 C3.625 2.8125 3.625 2.8125 4 6 C3.01 7.485 3.01 7.485 2 9 C1.34 6.03 0.68 3.06 0 0 Z " fill="#1B87CA" transform="translate(434,259)"/>
<path d="M0 0 C0.66 0.33 1.32 0.66 2 1 C0.35 2.98 -1.3 4.96 -3 7 C-3.99 6.67 -4.98 6.34 -6 6 C-4.02 4.02 -2.04 2.04 0 0 Z " fill="#F8D433" transform="translate(324,251)"/>
</svg>
